#!OML:ASF F:\VICON\USERDATA\INSTALL\rory3\rory3.ASF
:FULLY-SPECIFIED
:DEGREES
2870
root 0.975941 17.3607 -1.32002 54.8446 -0.459962 0.192124
lowerback 36.6401 -1.10636 7.52744
upperback 1.06902 2.32055 3.4062
thorax -17.2948 0.502232 -1.29528
lowerneck -2.20923 -1.01934 2.31257
upperneck -29.0555 -4.18343 -10.5362
head -8.95242 -1.3076 -3.77439
rclavicle -4.05521e-014 -3.00165e-014
rhumerus -29.5087 7.59648 -78.7891
rradius 138.687
rwrist 32.8521
rhand -2.16415 6.12517
rfingers 7.12502
rthumb 23.5159 -22.4574
lclavicle -4.05521e-014 -3.00165e-014
lhumerus -33.2982 -10.2012 89.4802
lradius 124.269
lwrist -31.6163
lhand -15.8447 16.4462
lfingers 7.12502
lthumb 10.3499 46.1715
rfemur -75.5474 8.1819 -5.99562
rtibia 21.8706
rfoot -10.3346 -32.9433
rtoes 19.1583
lfemur -77.5249 -4.14617 -13.4829
ltibia 28.6911
lfoot 1.78841 11.365
ltoes -19.3005
2871
root 0.974347 17.3633 -1.32454 54.7629 -0.479364 0.152666
lowerback 36.6868 -1.07966 7.49879
upperback 1.06962 2.34765 3.40991
thorax -17.3131 0.514829 -1.28853
lowerneck -2.14537 -1.04814 2.25832
upperneck -29.0505 -4.21407 -10.4762
head -8.9632 -1.32044 -3.74067
rclavicle 2.38542e-015 3.43897e-014
rhumerus -29.5656 7.5669 -78.8212
rradius 138.697
rwrist 32.8693
rhand -2.1427 6.17159
rfingers 7.12502
rthumb 23.5365 -22.4083
lclavicle 2.38542e-015 3.43897e-014
lhumerus -33.2721 -10.169 89.4516
lradius 124.232
lwrist -31.6743
lhand -15.7922 16.4473
lfingers 7.12502
lthumb 10.4006 46.17
rfemur -75.4818 8.22488 -5.91321
rtibia 21.8292
rfoot -10.126 -32.9357
rtoes 18.8979
lfemur -77.4507 -4.07004 -13.5508
ltibia 28.7112
lfoot 1.81114 11.2642
ltoes -19.4165
2872
root 0.972224 17.3644 -1.32812 54.6636 -0.557886 0.142163
lowerback 36.729 -1.03741 7.37595
upperback 1.1134 2.35263 3.42108
thorax -17.2838 0.528376 -1.21372
lowerneck -2.15936 -1.03117 2.20962
upperneck -29.0806 -4.19383 -10.4722
head -8.96938 -1.30511 -3.7331
rclavicle 3.97569e-015 -3.18055e-015
rhumerus -29.5118 7.62119 -78.8118
rradius 138.661
rwrist 32.8573
rhand -2.12956 6.11206
rfingers 7.12502
rthumb 23.5491 -22.4662
lclavicle 3.97569e-015 -3.18055e-015
lhumerus -33.235 -10.0754 89.4427
lradius 124.229
lwrist -31.727
lhand -15.6374 16.4357
lfingers 7.12502
lthumb 10.55 46.1509
rfemur -75.4154 8.27684 -5.90191
rtibia 21.7985
rfoot -10.0695 -32.8871
rtoes 18.7934
lfemur -77.3434 -3.99697 -13.665
ltibia 28.7138
lfoot 1.80184 11.2224
ltoes -19.6046
2873
root 0.972255 17.3658 -1.33129 54.5971 -0.556115 0.149149
lowerback 36.7601 -1.04521 7.35804
upperback 1.13223 2.33845 3.42862
thorax -17.2754 0.524757 -1.18924
lowerneck -2.17013 -1.0025 2.24118
upperneck -29.1307 -4.1714 -10.5387
head -8.98518 -1.29007 -3.76574
rclavicle -1.66979e-014 -2.5842e-014
rhumerus -29.4893 7.66841 -78.8215
rradius 138.631
rwrist 32.8661
rhand -2.0833 6.10019
rfingers 7.12502
rthumb 23.5935 -22.4724
lclavicle -1.66979e-014 -2.5842e-014
lhumerus -33.2144 -10.0108 89.438
lradius 124.228
lwrist -31.7399
lhand -15.5054 16.4599
lfingers 7.12502
lthumb 10.6773 46.1686
rfemur -75.3571 8.29035 -5.88273
rtibia 21.7966
rfoot -10.0883 -32.867
rtoes 18.9813
lfemur -77.2779 -4.00388 -13.6832
ltibia 28.7094
lfoot 1.77387 11.2159
ltoes -19.6254
2874
root 0.974914 17.3658 -1.33465 54.5493 -0.5167 0.230952
lowerback 36.7958 -1.10884 7.42029
upperback 1.1057 2.28568 3.40211
thorax -17.3204 0.495356 -1.22716
lowerneck -2.05481 -1.005 2.25076
upperneck -29.2227 -4.18288 -10.5322
head -9.04052 -1.29106 -3.76676
rclavicle -2.22639e-014 -4.7112e-014
rhumerus -29.5422 7.69448 -78.862
rradius 138.62
rwrist 32.951
rhand -2.11542 6.01033
rfingers 7.12502
rthumb 23.5627 -22.5662
lclavicle -2.22639e-014 -4.7112e-014
lhumerus -33.2593 -9.98223 89.4059
lradius 124.219
lwrist -31.7543
lhand -15.5798 16.4923
lfingers 7.12502
lthumb 10.6055 46.2047
rfemur -75.2808 8.19846 -5.84503
rtibia 21.8127
rfoot -9.92618 -32.8398
rtoes 18.7283
lfemur -77.2608 -4.0993 -13.7191
ltibia 28.712
lfoot 1.78006 11.2265
ltoes -19.4752
2875
root 0.974729 17.3633 -1.33884 54.5315 -0.542699 0.225616
lowerback 36.8411 -1.10218 7.40186
upperback 1.06596 2.29173 3.38626
thorax -17.3875 0.49553 -1.23809
lowerneck -1.99838 -1.01868 2.25635
upperneck -29.2162 -4.20313 -10.534
head -9.05022 -1.29973 -3.76644
rclavicle -7.95139e-016 6.75868e-015
rhumerus -29.644 7.69379 -78.882
rradius 138.649
rwrist 32.9175
rhand -2.19244 5.98965
rfingers 7.12502
rthumb 23.4888 -22.5964
lclavicle -7.95139e-016 6.75868e-015
lhumerus -33.3287 -9.98029 89.3719
lradius 124.221
lwrist -31.7319
lhand -15.6451 16.5855
lfingers 7.12502
lthumb 10.5426 46.3011
rfemur -75.2902 8.16801 -5.75901
rtibia 21.8323
rfoot -9.58909 -32.8061
rtoes 17.8576
lfemur -77.2651 -4.07447 -13.7467
ltibia 28.7173
lfoot 1.79994 11.2118
ltoes -19.3852
2876
root 0.974742 17.3607 -1.34293 54.5285 -0.528133 0.176517
lowerback 36.8167 -1.09269 7.42034
upperback 1.07004 2.30946 3.39289
thorax -17.3709 0.502257 -1.24858
lowerneck -2.05235 -1.02722 2.32168
upperneck -29.1543 -4.22105 -10.5932
head -9.02099 -1.31352 -3.7962
rclavicle 3.18055e-015 -8.54774e-015
rhumerus -29.667 7.69242 -78.8772
rradius 138.693
rwrist 32.8444
rhand -2.17812 5.97683
rfingers 7.12502
rthumb 23.5025 -22.6074
lclavicle 3.18055e-015 -8.54774e-015
lhumerus -33.3342 -9.97937 89.3843
lradius 124.26
lwrist -31.7074
lhand -15.4502 16.6093
lfingers 7.12502
lthumb 10.7305 46.3152
rfemur -75.3145 8.15725 -5.64465
rtibia 21.8516
rfoot -9.61454 -32.7277
rtoes 17.9626
lfemur -77.2796 -3.99513 -13.781
ltibia 28.7228
lfoot 1.85462 11.0821
ltoes -19.5031
2877
root 0.973892 17.3619 -1.3468 54.4774 -0.49318 0.157261
lowerback 36.8275 -1.0867 7.42524
upperback 1.08104 2.32729 3.43581
thorax -17.3627 0.511363 -1.21142
lowerneck -2.10715 -1.0401 2.31494
upperneck -29.074 -4.24583 -10.6424
head -8.98469 -1.32424 -3.80844
rclavicle -2.38542e-015 -2.10712e-014
rhumerus -29.6586 7.71129 -78.8046
rradius 138.723
rwrist 32.7858
rhand -2.125 5.99912
rfingers 7.12502
rthumb 23.5535 -22.5786
lclavicle -2.38542e-015 -2.10712e-014
lhumerus -33.3398 -9.95943 89.449
lradius 124.27
lwrist -31.646
lhand -15.416 16.5063
lfingers 7.12502
lthumb 10.7635 46.2106
rfemur -75.2926 8.20531 -5.6421
rtibia 21.8914
rfoot -9.7761 -32.7408
rtoes 18.1119
lfemur -77.2354 -4.0043 -13.727
ltibia 28.7241
lfoot 1.9401 11.0387
ltoes -20.1798
2878
root 0.97203 17.3648 -1.35145 54.389 -0.517607 0.171602
lowerback 36.9057 -1.0822 7.37235
upperback 1.08441 2.31985 3.44047
thorax -17.3938 0.511383 -1.17491
lowerneck -2.12922 -1.05129 2.3103
upperneck -29.0299 -4.2653 -10.667
head -8.96669 -1.33289 -3.81372
rclavicle 0 3.97569e-016
rhumerus -29.6659 7.75078 -78.7857
rradius 138.738
rwrist 32.7192
rhand -2.06489 5.97749
rfingers 7.12502
rthumb 23.6112 -22.5928
lclavicle 0 3.97569e-016
lhumerus -33.3477 -9.96218 89.4564
lradius 124.251
lwrist -31.615
lhand -15.4291 16.4841
lfingers 7.12502
lthumb 10.7508 46.189
rfemur -75.2508 8.2565 -5.68883
rtibia 21.9324
rfoot -9.57776 -32.8133
rtoes 17.5513
lfemur -77.1437 -4.02438 -13.7236
ltibia 28.7234
lfoot 1.87442 11.1174
ltoes -19.7607
2879
root 0.972334 17.364 -1.35624 54.3562 -0.510299 0.252657
lowerback 36.9158 -1.10399 7.39209
upperback 1.09574 2.29295 3.39874
thorax -17.3819 0.497778 -1.21932
lowerneck -2.26239 -1.05554 2.31998
upperneck -28.9779 -4.25442 -10.6316
head -8.92217 -1.3376 -3.80259
rclavicle 1.90833e-014 5.04913e-014
rhumerus -29.6339 7.64294 -78.7945
rradius 138.735
rwrist 32.7199
rhand -2.0105 6.00143
rfingers 7.12502
rthumb 23.6633 -22.5622
lclavicle 1.90833e-014 5.04913e-014
lhumerus -33.2898 -10.052 89.4161
lradius 124.22
lwrist -31.6472
lhand -15.4781 16.4547
lfingers 7.12502
lthumb 10.7036 46.162
rfemur -75.2246 8.18411 -5.71105
rtibia 21.9675
rfoot -9.34641 -32.8165
rtoes 17.2957
lfemur -77.1182 -4.06413 -13.8402
ltibia 28.7009
lfoot 1.88704 11.0609
ltoes -19.5707
